<?xml version="1.0" encoding="UTF-8" standalone="no"?>
<!-- Created with Inkscape (http://www.inkscape.org/) -->

<svg
   width="256"
   height="256"
   viewBox="0 0 67.733332 67.733333"
   version="1.1"
   id="svg1"
   inkscape:version="1.3 (0e150ed6c4, 2023-07-21)"
   sodipodi:docname="icons.svg"
   inkscape:export-filename="icon.png"
   inkscape:export-xdpi="96"
   inkscape:export-ydpi="96"
   xmlns:inkscape="http://www.inkscape.org/namespaces/inkscape"
   xmlns:sodipodi="http://sodipodi.sourceforge.net/DTD/sodipodi-0.dtd"
   xmlns="http://www.w3.org/2000/svg"
   xmlns:svg="http://www.w3.org/2000/svg">
  <sodipodi:namedview
     id="namedview1"
     pagecolor="#ffffff"
     bordercolor="#666666"
     borderopacity="1.0"
     inkscape:showpageshadow="2"
     inkscape:pageopacity="0.0"
     inkscape:pagecheckerboard="0"
     inkscape:deskcolor="#d1d1d1"
     inkscape:document-units="mm"
     inkscape:zoom="2.1392361"
     inkscape:cx="128.0831"
     inkscape:cy="160.57134"
     inkscape:window-width="1920"
     inkscape:window-height="1057"
     inkscape:window-x="1912"
     inkscape:window-y="-8"
     inkscape:window-maximized="1"
     inkscape:current-layer="layer2" />
  <defs
     id="defs1" />
  <g
     inkscape:label="Layer 1"
     inkscape:groupmode="layer"
     id="layer1"
     style="display:none">
    <path
       id="path1"
       style="display:none;fill:#de9f47;stroke-width:1.05833;stroke-linecap:round;stroke-linejoin:round;paint-order:stroke markers fill"
       d="M 33.866667,8.4666667 A 25.4,25.4 0 0 0 8.4666667,33.866667 a 25.4,25.4 0 0 0 25.4000003,25.4 25.4,25.4 0 0 0 25.4,-25.4 25.4,25.4 0 0 0 -25.4,-25.4000003 z M 22.934517,20.115051 a 6.8263254,7.0839224 0 0 1 6.826457,7.083806 6.8263254,7.0839224 0 0 1 -6.826457,7.083805 6.8263254,7.0839224 0 0 1 -6.82594,-7.083805 6.8263254,7.0839224 0 0 1 6.82594,-7.083806 z m 21.864299,0 a 6.8263254,7.0839224 0 0 1 6.82594,7.083806 6.8263254,7.0839224 0 0 1 -6.82594,7.083805 6.8263254,7.0839224 0 0 1 -6.826457,-7.083805 6.8263254,7.0839224 0 0 1 6.826457,-7.083806 z"
       inkscape:label="face_blank" />
    <ellipse
       style="display:none;fill:#f1f6f0;stroke-width:1.05833;stroke-linecap:round;stroke-linejoin:round;paint-order:stroke markers fill"
       id="ellipse3"
       cx="22.934685"
       cy="27.198763"
       rx="6.8263254"
       ry="7.0839224"
       inkscape:label="eyes" />
    <ellipse
       style="display:none;fill:#f1f6f0;stroke-width:1.05833;stroke-linecap:round;stroke-linejoin:round;paint-order:stroke markers fill"
       id="ellipse4"
       cx="44.798645"
       cy="27.198763"
       rx="6.8263254"
       ry="7.0839224"
       inkscape:label="eyes" />
    <path
       style="display:none;fill:none;stroke:#000000;stroke-width:6.35;stroke-linecap:round;stroke-linejoin:round;stroke-dasharray:none;stroke-opacity:1"
       d="m 20.140014,43.966486 c 0,0 8.874185,4.062561 14.097214,4.118147 5.289955,0.0563 13.355126,-4.118147 13.355126,-4.118147"
       id="path4"
       sodipodi:nodetypes="csc"
       inkscape:label="smile" />
    <path
       id="path6"
       style="display:inline;fill:#ffffff;fill-opacity:1;stroke:none;stroke-width:1.05833;stroke-linecap:round;stroke-linejoin:round;paint-order:stroke markers fill"
       inkscape:label="face_happy"
       d="M 33.866667,8.4666667 C 19.838634,8.4666665 8.4666665,19.838634 8.4666667,33.866667 c 0,14.028033 11.3719673,25.4 25.4000003,25.4 14.028033,0 25.4,-11.371967 25.4,-25.4 0,-14.028033 -11.371967,-25.4000003 -25.4,-25.4000003 z M 22.934517,20.115051 c 3.770083,-7.5e-5 6.826395,3.171456 6.826457,7.083806 -6.2e-5,3.91235 -3.056374,7.08388 -6.826457,7.083805 -3.769881,-2.21e-4 -6.825878,-3.171665 -6.82594,-7.083805 6.2e-5,-3.912141 3.056059,-7.083585 6.82594,-7.083806 z m 21.864299,0 c 3.769881,2.21e-4 6.825878,3.171665 6.82594,7.083806 -6.2e-5,3.91214 -3.056059,7.083584 -6.82594,7.083805 -3.770083,7.5e-5 -6.826395,-3.171455 -6.826457,-7.083805 6.2e-5,-3.91235 3.056374,-7.083881 6.826457,-7.083806 z m 2.939872,18.679452 c 0.277213,0.01288 0.551541,0.06204 0.815971,0.146244 0.802352,0.255345 1.470419,0.818945 1.857251,1.56683 0.80633,1.557011 0.197861,3.472879 -1.35909,4.279325 0,0 -2.161798,1.11868 -5.007963,2.220536 -2.846166,1.101857 -6.344618,2.289279 -9.841777,2.252059 -3.415423,-0.03635 -7.028756,-1.191855 -10.03918,-2.263944 -3.010423,-1.07209 -5.34541,-2.142505 -5.34541,-2.142505 -1.594507,-0.730093 -2.295117,-2.614658 -1.564763,-4.209046 0.730274,-1.593138 2.613272,-2.293277 4.206979,-1.564245 0,0 2.101915,0.960649 4.83433,1.933732 2.732414,0.973083 6.168663,1.876768 7.976257,1.896008 1.792787,0.01908 4.971783,-0.85289 7.48068,-1.824178 2.508898,-0.971287 4.380612,-1.939416 4.380612,-1.939416 0.495228,-0.256119 1.049168,-0.377316 1.606103,-0.3514 z"
       sodipodi:nodetypes="sssssccccccccccccccssscccssscc" />
    <path
       id="path7"
       style="display:none;fill:#ffffff;fill-opacity:1;stroke:none;stroke-width:1.05833;stroke-linecap:round;stroke-linejoin:round;paint-order:stroke markers fill"
       inkscape:label="face_sad"
       d="M 33.866667,8.4666667 C 19.838634,8.4666665 8.4666665,19.838634 8.4666667,33.866667 c 0,14.028033 11.3719673,25.4 25.4000003,25.4 14.028033,0 25.4,-11.371967 25.4,-25.4 0,-14.028033 -11.371967,-25.4000003 -25.4,-25.4000003 z M 22.934517,20.115051 c 3.770083,-7.5e-5 6.826395,3.171456 6.826457,7.083806 -6.2e-5,3.91235 -3.056374,7.08388 -6.826457,7.083805 -3.769881,-2.21e-4 -6.825878,-3.171665 -6.82594,-7.083805 6.2e-5,-3.912141 3.056059,-7.083585 6.82594,-7.083806 z m 21.864299,0 c 3.769881,2.21e-4 6.825878,3.171665 6.82594,7.083806 -6.2e-5,3.91214 -3.056059,7.083584 -6.82594,7.083805 -3.770083,7.5e-5 -6.826395,-3.171455 -6.826457,-7.083805 6.2e-5,-3.91235 3.056374,-7.083881 6.826457,-7.083806 z M 34.20308,38.79313 c 3.497159,-0.03722 6.995611,1.150202 9.841777,2.252059 2.846165,1.101857 5.007963,2.220536 5.007963,2.220536 1.556951,0.806446 2.16542,2.722314 1.35909,4.279325 -0.806261,1.557145 -2.722177,2.16586 -4.279325,1.359607 0,0 -1.871714,-0.966061 -4.380612,-1.937349 -2.508897,-0.971288 -5.687893,-1.843775 -7.48068,-1.824695 -1.807594,0.01924 -5.243843,0.921892 -7.976257,1.894975 -2.732415,0.973084 -4.83433,1.935282 -4.83433,1.935282 -1.594266,0.728765 -3.477483,0.02762 -4.206979,-1.566312 -0.728965,-1.593847 -0.02857,-3.4769 1.564763,-4.206979 0,0 2.334987,-1.070416 5.34541,-2.142505 3.010424,-1.07209 6.623757,-2.227594 10.03918,-2.263944 z"
       sodipodi:nodetypes="sssssccccccccccsscccssscccss" />
    <path
       id="path9"
       style="display:none;fill:#ffffff;fill-opacity:1;stroke:none;stroke-width:1.05833;stroke-linecap:round;stroke-linejoin:round;paint-order:stroke markers fill"
       inkscape:label="face_neutral"
       d="M 33.866667,8.4666667 C 19.838634,8.4666665 8.4666665,19.838634 8.4666667,33.866667 c 0,14.028033 11.3719673,25.4 25.4000003,25.4 14.028033,0 25.4,-11.371967 25.4,-25.4 0,-14.028033 -11.371967,-25.4000003 -25.4,-25.4000003 z M 22.934517,20.115051 c 3.770083,-7.5e-5 6.826395,3.171456 6.826457,7.083806 -6.2e-5,3.91235 -3.056374,7.08388 -6.826457,7.083805 -3.769881,-2.21e-4 -6.825878,-3.171665 -6.82594,-7.083805 6.2e-5,-3.912141 3.056059,-7.083585 6.82594,-7.083806 z m 21.864299,0 c 3.769881,2.21e-4 6.825878,3.171665 6.82594,7.083806 -6.2e-5,3.91214 -3.056059,7.083584 -6.82594,7.083805 -3.770083,7.5e-5 -6.826395,-3.171455 -6.826457,-7.083805 6.2e-5,-3.91235 3.056374,-7.083881 6.826457,-7.083806 z M 29.831254,40.828374 c 1.574277,0.0026 3.119086,0.0097 4.440039,0.02377 5.233082,0.0557 13.29893,0 13.29893,0 1.753321,-0.01232 3.184707,1.398942 3.197221,3.152262 0.01232,1.753321 -1.398943,3.184707 -3.152263,3.197221 0,0 -8.065293,0.05691 -13.412101,0 -5.162224,-0.05494 -14.04307,0 -14.04307,0 -1.75412,0.01116 -3.184911,-1.402271 -3.195154,-3.156396 -0.01002,-1.753315 1.403082,-3.182842 3.156396,-3.193087 0,0 4.987173,-0.03168 9.710002,-0.02377 z"
       sodipodi:nodetypes="ssssscccccccccccccccscccc" />
    <path
       id="path11"
       style="display:none;fill:#ffffff;fill-opacity:1;stroke-width:1.05833;stroke-linecap:round;stroke-linejoin:round;paint-order:stroke markers fill"
       inkscape:label="face_joyous"
       d="M 33.866667,8.4666667 C 19.838634,8.4666665 8.4666665,19.838634 8.4666667,33.866667 c 0,14.028033 11.3719673,25.4 25.4000003,25.4 14.028033,0 25.4,-11.371967 25.4,-25.4 0,-14.028033 -11.371967,-25.4000003 -25.4,-25.4000003 z M 22.934517,20.115051 c 3.770083,-7.5e-5 6.826395,3.171456 6.826457,7.083806 -6.2e-5,3.91235 -3.056374,7.08388 -6.826457,7.083805 -3.769881,-2.21e-4 -6.825878,-3.171665 -6.82594,-7.083805 6.2e-5,-3.912141 3.056059,-7.083585 6.82594,-7.083806 z m 21.864299,0 c 3.769881,2.21e-4 6.825878,3.171665 6.82594,7.083806 -6.2e-5,3.91214 -3.056059,7.083584 -6.82594,7.083805 -3.770083,7.5e-5 -6.826395,-3.171455 -6.826457,-7.083805 6.2e-5,-3.91235 3.056374,-7.083881 6.826457,-7.083806 z M 20.140373,38.790436 h 27.451554 c 3.33015,-0.0039 4.419679,4.468299 1.460893,5.996533 0,0 -2.161798,1.11868 -5.007963,2.220536 -2.846166,1.101857 -6.344618,2.289279 -9.841777,2.252059 C 30.787657,49.223214 27.174324,48.067709 24.1639,46.99562 21.153477,45.92353 18.81849,44.853115 18.81849,44.853115 15.717025,43.433858 16.7296,38.78979 20.140373,38.790436 Z"
       sodipodi:nodetypes="ssssscccccccccccccssscc" />
    <path
       id="path13"
       style="display:none;fill:#ffffff;fill-opacity:1;stroke-width:1.05833;stroke-linecap:round;stroke-linejoin:round;paint-order:stroke markers fill"
       inkscape:label="face_awful"
       d="M 33.866667,8.4666667 C 19.838634,8.4666665 8.4666665,19.838634 8.4666667,33.866667 c 0,14.028033 11.3719673,25.4 25.4000003,25.4 14.028033,0 25.4,-11.371967 25.4,-25.4 0,-14.028033 -11.371967,-25.4000003 -25.4,-25.4000003 z M 22.934517,20.115051 c 3.770083,-7.5e-5 6.826395,3.171456 6.826457,7.083806 -6.2e-5,3.91235 -3.056374,7.08388 -6.826457,7.083805 -3.769881,-2.21e-4 -6.825878,-3.171665 -6.82594,-7.083805 6.2e-5,-3.912141 3.056059,-7.083585 6.82594,-7.083806 z m 21.864299,0 c 3.769881,2.21e-4 6.825878,3.171665 6.82594,7.083806 -6.2e-5,3.91214 -3.056059,7.083584 -6.82594,7.083805 -3.770083,7.5e-5 -6.826395,-3.171455 -6.826457,-7.083805 6.2e-5,-3.91235 3.056374,-7.083881 6.826457,-7.083806 z M 33.52922,38.79247 c 3.415423,0.03635 7.028757,1.191854 10.03918,2.263944 3.010424,1.072089 5.34541,2.142505 5.34541,2.142505 3.094527,1.421924 2.083693,6.056428 -1.321883,6.060612 H 20.140373 c -3.324454,-0.0025 -4.410385,-4.464661 -1.458826,-5.994466 0,0 2.15973,-1.118679 5.005896,-2.220536 2.846166,-1.101857 6.344618,-2.289279 9.841777,-2.252059 z"
       sodipodi:nodetypes="sssssccccccccccssccccss" />
  </g>
  <g
     inkscape:groupmode="layer"
     id="layer2"
     inkscape:label="Layer 2"
     style="display:inline">
    <rect
       style="display:inline;fill:#645355;fill-opacity:1;stroke:none;stroke-width:4.23333;stroke-linecap:round;stroke-linejoin:round;paint-order:stroke markers fill"
       id="rect1"
       width="67.73333"
       height="67.73333"
       x="1.7801921e-06"
       y="1.7801921e-06" />
    <path
       id="path3"
       style="display:inline;fill:#4e5463;fill-opacity:1;stroke:none;stroke-width:1.05833;stroke-linecap:round;stroke-linejoin:round;paint-order:stroke markers fill"
       inkscape:label="face_happy"
       d="m 35.983333,19.05 c -9.352022,0 -16.933334,7.581311 -16.933333,16.933333 0,9.352023 7.581311,16.933335 16.933333,16.933335 9.352023,0 16.933335,-7.581312 16.933335,-16.933335 C 52.916668,26.631311 45.335356,19.05 35.983333,19.05 Z m -7.2881,7.765589 c 2.513389,-4.9e-5 4.550931,2.114304 4.550972,4.722537 -4.1e-5,2.608234 -2.037583,4.722587 -4.550972,4.722538 -2.513254,-1.47e-4 -4.550585,-2.114444 -4.550627,-4.722538 4.2e-5,-2.608094 2.037373,-4.72239 4.550627,-4.722537 z m 14.5762,0 c 2.513255,1.47e-4 4.550585,2.114443 4.550628,4.722537 -4.3e-5,2.608094 -2.037373,4.722391 -4.550628,4.722538 -2.513388,4.9e-5 -4.55093,-2.114304 -4.550971,-4.722538 4.1e-5,-2.608233 2.037583,-4.722586 4.550971,-4.722537 z m 1.959915,12.452969 c 0.184808,0.0086 0.367694,0.04136 0.54398,0.0975 0.534902,0.170229 0.98028,0.545963 1.238168,1.044553 0.537554,1.038007 0.131908,2.315253 -0.90606,2.852883 0,0 -1.441199,0.745787 -3.338642,1.480358 -1.897444,0.734572 -4.229746,1.526186 -6.561186,1.501372 -2.276948,-0.02423 -4.685836,-0.794569 -6.692786,-1.509295 -2.006948,-0.714727 -3.563607,-1.428337 -3.563607,-1.428337 -1.063004,-0.486729 -1.530078,-1.743106 -1.043175,-2.806031 0.486849,-1.062092 1.742181,-1.528851 2.804652,-1.04283 0,0 1.401277,0.640433 3.222887,1.289154 1.821609,0.648722 4.112442,1.251179 5.317505,1.264006 1.195192,0.01272 3.314523,-0.568593 4.98712,-1.216119 1.6726,-0.647524 2.920409,-1.292943 2.920409,-1.292943 0.330152,-0.170746 0.699445,-0.251545 1.070735,-0.234268 z"
       sodipodi:nodetypes="sssssccccccccccccccssscccssscc" />
    <path
       id="path6-0"
       style="display:inline;fill:#9c524e;fill-opacity:1;stroke:none;stroke-width:1.05833;stroke-linecap:round;stroke-linejoin:round;paint-order:stroke markers fill"
       inkscape:label="face_happy"
       d="m 33.866666,16.933333 c -9.352022,0 -16.933334,7.581311 -16.933333,16.933333 0,9.352023 7.581311,16.933335 16.933333,16.933335 9.352023,0 16.933335,-7.581312 16.933335,-16.933335 0,-9.352022 -7.581312,-16.933333 -16.933335,-16.933333 z m -7.2881,7.765589 c 2.513389,-4.9e-5 4.550931,2.114304 4.550972,4.722537 -4.1e-5,2.608234 -2.037583,4.722587 -4.550972,4.722538 -2.513254,-1.47e-4 -4.550585,-2.114444 -4.550627,-4.722538 4.2e-5,-2.608094 2.037373,-4.72239 4.550627,-4.722537 z m 14.5762,0 c 2.513255,1.47e-4 4.550585,2.114443 4.550628,4.722537 -4.3e-5,2.608094 -2.037373,4.722391 -4.550628,4.722538 -2.513388,4.9e-5 -4.55093,-2.114304 -4.550971,-4.722538 4.1e-5,-2.608233 2.037583,-4.722586 4.550971,-4.722537 z m 1.959915,12.452969 c 0.184808,0.0086 0.367694,0.04136 0.54398,0.0975 0.534902,0.170229 0.98028,0.545963 1.238168,1.044553 0.537554,1.038007 0.131908,2.315253 -0.90606,2.852883 0,0 -1.441199,0.745787 -3.338642,1.480358 -1.897444,0.734572 -4.229746,1.526186 -6.561186,1.501372 -2.276948,-0.02423 -4.685836,-0.794569 -6.692786,-1.509295 -2.006948,-0.714727 -3.563607,-1.428337 -3.563607,-1.428337 -1.063004,-0.486729 -1.530078,-1.743106 -1.043175,-2.806031 0.486849,-1.062092 1.742181,-1.528851 2.804652,-1.04283 0,0 1.401277,0.640433 3.222887,1.289154 1.821609,0.648722 4.112442,1.251179 5.317505,1.264006 1.195192,0.01272 3.314523,-0.568593 4.98712,-1.216119 1.6726,-0.647524 2.920409,-1.292943 2.920409,-1.292943 0.330152,-0.170746 0.699445,-0.251545 1.070735,-0.234268 z"
       sodipodi:nodetypes="sssssccccccccccccccssscccssscc" />
    <path
       id="path2"
       style="display:inline;fill:#cca87b;fill-opacity:1;stroke:none;stroke-width:1.05833;stroke-linecap:round;stroke-linejoin:round;paint-order:stroke markers fill"
       inkscape:label="face_happy"
       d="m 31.75,14.816667 c -9.352022,0 -16.933334,7.581311 -16.933333,16.933333 0,9.352023 7.581311,16.933335 16.933333,16.933335 9.352023,0 16.933335,-7.581312 16.933335,-16.933335 0,-9.352022 -7.581312,-16.933333 -16.933335,-16.933333 z m -7.2881,7.765589 c 2.513389,-4.9e-5 4.550931,2.114304 4.550972,4.722537 -4.1e-5,2.608234 -2.037583,4.722587 -4.550972,4.722538 -2.513254,-1.47e-4 -4.550585,-2.114444 -4.550627,-4.722538 4.2e-5,-2.608094 2.037373,-4.72239 4.550627,-4.722537 z m 14.5762,0 c 2.513255,1.47e-4 4.550585,2.114443 4.550628,4.722537 -4.3e-5,2.608094 -2.037373,4.722391 -4.550628,4.722538 -2.513388,4.9e-5 -4.55093,-2.114304 -4.550971,-4.722538 4.1e-5,-2.608233 2.037583,-4.722586 4.550971,-4.722537 z m 1.959915,12.452969 c 0.184808,0.0086 0.367694,0.04136 0.54398,0.0975 0.534902,0.170229 0.98028,0.545963 1.238168,1.044553 0.537554,1.038007 0.131908,2.315253 -0.90606,2.852883 0,0 -1.441199,0.745787 -3.338642,1.480358 -1.897444,0.734572 -4.229746,1.526186 -6.561186,1.501372 -2.276948,-0.02423 -4.685836,-0.794569 -6.692786,-1.509295 -2.006948,-0.714727 -3.563607,-1.428337 -3.563607,-1.428337 -1.063004,-0.486729 -1.530078,-1.743106 -1.043175,-2.806031 0.486849,-1.062092 1.742181,-1.528851 2.804652,-1.04283 0,0 1.401277,0.640433 3.222887,1.289154 1.821609,0.648722 4.112442,1.251179 5.317505,1.264006 1.195192,0.01272 3.314523,-0.568593 4.98712,-1.216119 1.6726,-0.647524 2.920409,-1.292943 2.920409,-1.292943 0.330152,-0.170746 0.699445,-0.251545 1.070735,-0.234268 z"
       sodipodi:nodetypes="sssssccccccccccccccssscccssscc" />
  </g>
</svg>
